# xmcd
#
# Track frame offsets:
#	150
#	19050
#	33632
#	45679
#	69882
#	88377
#	106847
#	125792
#	143425
#	154239
#	167127
#
# Disc length: 2530 seconds
#
# Revision: 0
# Processed by: cddbd v1.4PL0 Copyright (c) Steve Scherf et al.
# Submitted via: EasyCDDAExtractor 4.6.9.1
#
DISCID=9209e00b
DTITLE=Garth Brooks - Fresh Horses (The Limited Series)
DYEAR=2000
DGENRE=Country
TTITLE0=The Old Stuff
TTITLE1=Cowboys And Angels
TTITLE2=The Fever
TTITLE3=That Ol' Wind
TTITLE4=Rollin
TTITLE5=The Change
TTITLE6=The Beaches Of Cheyenne
TTITLE7=To Make You Feel My Love
TTITLE8=It's Midnight Cinderella
TTITLE9=She's Every Woman
TTITLE10=Ireland
EXTD=
EXTT0=
EXTT1=
EXTT2=
EXTT3=
EXTT4=
EXTT5=
EXTT6=
EXTT7=
EXTT8=
EXTT9=
EXTT10=
PLAYORDER=
